<?xml version="1.0"?>
<!DOCTYPE svg PUBLIC "-//W3C//DTD SVG 1.1//EN" "http://www.w3.org/Graphics/SVG/1.1/DTD/svg11.dtd">
<svg width="346.8mm" height="581.8mm" viewBox="0 0 346.8 581.8" xmlns="http://www.w3.org/2000/svg" version="1.1">
<g id="Body" transform="translate(173.400000,290.900000) scale(1,-1)">
<path id="Body_f0000"  d="M 10.4225235432 -44.654767675 A 157.5 157.5 0 0 0 -7.29331 -44.831Q -7.29331211989 -44.8310446108 -7.29331211989 -44.8310446108 A 157.5 157.5 0 0 1 10.4225 -44.6548Q 10.4225235432 -44.654767675 10.4225235432 -44.654767675 Z " stroke="#191919" stroke-width="0.35 px" style="stroke-width:0.35;stroke-miterlimit:4;stroke-dasharray:none;fill:#cccccc;fill-opacity:1.0;fill-rule: evenodd "/>
<circle cx="0.0" cy="-169.5" r="37.5" stroke="#191919" stroke-width="0.35 px" style="stroke-width:0.35;stroke-miterlimit:4;stroke-dasharray:none;fill:#cccccc"/>
<path id="Body_f0002"  d="M -7.29331211989 -44.8310446108 C -10.6575085449 -44.6316917057 -14.2098821437 -46.3665078922 -16.108885473 -49.3216224477 C -18.0726989274 -52.2341386891 -18.26198328 -56.182918556 -16.7490575358 -59.1943020527 Q -16.7490575358 -59.1943020527 -16.7490575358 -59.1943020527 C -18.26198328 -56.182918556 -18.0726989274 -52.2341386891 -16.108885473 -49.3216224477 C -14.2098821437 -46.3665078922 -10.6575085449 -44.6316917057 -7.29331211989 -44.8310446108 Q -7.29331211989 -44.8310446108 -7.29331211989 -44.8310446108 Z " stroke="#191919" stroke-width="0.35 px" style="stroke-width:0.35;stroke-miterlimit:4;stroke-dasharray:none;fill:#cccccc;fill-opacity:1.0;fill-rule: evenodd "/>
<path id="Body_f0003"  d="M 10.4225235432 -44.654767675 C 14.0837451775 -44.3741212152 17.79652702 -46.315155437 19.6555282342 -49.4817753981 C 21.587462516 -52.6220741658 21.5495393306 -56.8324812753 19.5613543691 -59.937474326 Q 19.5613543691 -59.937474326 19.5613543691 -59.937474326 C 21.5495393306 -56.8324812753 21.587462516 -52.6220741657 19.6555282342 -49.4817753981 C 17.79652702 -46.315155437 14.0837451775 -44.3741212152 10.4225235432 -44.654767675 Q 10.4225235432 -44.654767675 10.4225235432 -44.654767675 Z " stroke="#191919" stroke-width="0.35 px" style="stroke-width:0.35;stroke-miterlimit:4;stroke-dasharray:none;fill:#cccccc;fill-opacity:1.0;fill-rule: evenodd "/>
<circle cx="0.0" cy="-169.5" r="37.5" stroke="#191919" stroke-width="0.35 px" style="stroke-width:0.35;stroke-miterlimit:4;stroke-dasharray:none;fill:#cccccc"/>
<path id="Body_f0005"  d="M -16.7490575358 -59.1943020527 A 67 67 0 1 0 -102.25 -26.4401Q -102.250203202 -26.4401318223 -102.250203202 -26.4401318223 A 67 67 0 1 1 -16.7491 -59.1943Q -16.7490575358 -59.1943020527 -16.7490575358 -59.1943020527 Z " stroke="#191919" stroke-width="0.35 px" style="stroke-width:0.35;stroke-miterlimit:4;stroke-dasharray:none;fill:#cccccc;fill-opacity:1.0;fill-rule: evenodd "/>
<path id="Body_f0006"  d="M 90.4333902256 -35.6186384929 A 59.5 59.5 0 1 0 19.5614 -59.9375Q 19.5613543691 -59.937474326 19.5613543691 -59.937474326 A 59.5 59.5 0 1 1 90.4334 -35.6186Q 90.4333902256 -35.6186384929 90.4333902256 -35.6186384929 Z " stroke="#191919" stroke-width="0.35 px" style="stroke-width:0.35;stroke-miterlimit:4;stroke-dasharray:none;fill:#cccccc;fill-opacity:1.0;fill-rule: evenodd "/>
<path id="Body_f0007"  d="M -99.6894042626 -9.43552672528 C -97.0530935541 -11.5348696512 -95.5689821923 -15.1990345586 -96.130390702 -18.666617957 C -96.6150992938 -22.1456944525 -99.1125133901 -25.2103099615 -102.250203202 -26.4401318223 Q -102.250203202 -26.4401318223 -102.250203202 -26.4401318223 C -99.1125133901 -25.2103099615 -96.6150992938 -22.1456944525 -96.130390702 -18.666617957 C -95.5689821923 -15.1990345586 -97.0530935541 -11.5348696512 -99.6894042626 -9.43552672528 Q -99.6894042626 -9.43552672528 -99.6894042626 -9.43552672528 Z " stroke="#191919" stroke-width="0.35 px" style="stroke-width:0.35;stroke-miterlimit:4;stroke-dasharray:none;fill:#cccccc;fill-opacity:1.0;fill-rule: evenodd "/>
<path id="Body_f0008"  d="M 90.4333902256 -35.6186384929 C 86.9719653513 -34.3931409898 84.3627652196 -31.1152701057 83.9447953058 -27.4671653041 C 83.4494802869 -23.8136041028 85.1885962505 -19.9789669803 88.2635392206 -17.9446152367 Q 88.2635392206 -17.9446152367 88.2635392206 -17.9446152367 C 85.1885962505 -19.9789669803 83.4494802869 -23.8136041028 83.9447953058 -27.4671653041 C 84.3627652196 -31.1152701057 86.9719653513 -34.3931409898 90.4333902256 -35.6186384929 Q 90.4333902256 -35.6186384929 90.4333902256 -35.6186384929 Z " stroke="#191919" stroke-width="0.35 px" style="stroke-width:0.35;stroke-miterlimit:4;stroke-dasharray:none;fill:#cccccc;fill-opacity:1.0;fill-rule: evenodd "/>
<path id="Body_f0009"  d="M -99.6894042626 -9.43552672528 A 157.5 157.5 0 1 0 88.2635 -17.9446Q 88.2635392206 -17.9446152367 88.2635392206 -17.9446152367 A 157.5 157.5 0 1 1 -99.6894 -9.43553Q -99.6894042626 -9.43552672528 -99.6894042626 -9.43552672528 Z " stroke="#191919" stroke-width="0.35 px" style="stroke-width:0.35;stroke-miterlimit:4;stroke-dasharray:none;fill:#cccccc;fill-opacity:1.0;fill-rule: evenodd "/>
<path id="Body_f0010"  d="M -170.0 287.5 L -170.0 287.5 L 170.0 287.5 L 170.0 287.5 L -170.0 287.5 Z " stroke="#191919" stroke-width="0.35 px" style="stroke-width:0.35;stroke-miterlimit:4;stroke-dasharray:none;fill:#cccccc;fill-opacity:1.0;fill-rule: evenodd "/>
<path id="Body_f0011"  d="M 170.0 287.5 L 170.0 287.5 L 170.0 -287.5 L 170.0 -287.5 L 170.0 287.5 Z " stroke="#191919" stroke-width="0.35 px" style="stroke-width:0.35;stroke-miterlimit:4;stroke-dasharray:none;fill:#cccccc;fill-opacity:1.0;fill-rule: evenodd "/>
<path id="Body_f0012"  d="M 170.0 -287.5 L 170.0 -287.5 L -170.0 -287.5 L -170.0 -287.5 L 170.0 -287.5 Z " stroke="#191919" stroke-width="0.35 px" style="stroke-width:0.35;stroke-miterlimit:4;stroke-dasharray:none;fill:#cccccc;fill-opacity:1.0;fill-rule: evenodd "/>
<path id="Body_f0013"  d="M -170.0 -287.5 L -170.0 -287.5 L -170.0 287.5 L -170.0 287.5 L -170.0 -287.5 Z " stroke="#191919" stroke-width="0.35 px" style="stroke-width:0.35;stroke-miterlimit:4;stroke-dasharray:none;fill:#cccccc;fill-opacity:1.0;fill-rule: evenodd "/>
<circle cx="0.0" cy="-169.5" r="37.5" stroke="#191919" stroke-width="0.35 px" style="stroke-width:0.35;stroke-miterlimit:4;stroke-dasharray:none;fill:#cccccc"/>
<circle cx="135.0" cy="-259.5" r="10.0" stroke="#191919" stroke-width="0.35 px" style="stroke-width:0.35;stroke-miterlimit:4;stroke-dasharray:none;fill:#cccccc"/>
<circle cx="90.0" cy="-259.5" r="10.0" stroke="#191919" stroke-width="0.35 px" style="stroke-width:0.35;stroke-miterlimit:4;stroke-dasharray:none;fill:#cccccc"/>
<title>cover</title>
</g>
</svg>