  0
SECTION
  2
HEADER
  9
$ACADVER
  1
AC1009
  9
$INSBASE
 10
0.0
 20
0.0
 30
0.0
  9
$EXTMIN
 10
0.0
 20
0.0
 30
0.0
  9
$EXTMAX
 10
0.0
 20
0.0
 30
0.0
  0
ENDSEC
  0
SECTION
  2
TABLES
  0
TABLE
  2
VPORT
 70
0
  0
ENDTAB
  0
TABLE
  2
LTYPE
 70
1
  0
LTYPE
  2
CONTINUOUS
 70
0
  3
Solid line
 72
65
 73
0
 40
0.0
  0
ENDTAB
  0
TABLE
  2
LAYER
 70
1
  0
LAYER
  2
0
 70
64
 62
7
  6
continuous
  0
ENDTAB
  0
TABLE
  2
STYLE
 70
1
  0
STYLE
  2
STANDARD
 70
0
 40
0
 41
1.0
 50
0.0
 71
0
 42
1
 3
ARIAL.TTF
 4

  0
ENDTAB
  0
TABLE
  2
VIEW
 70
0
  0
ENDTAB
  0
ENDSEC
  0
SECTION
  2
BLOCKS
  0
BLOCK
  8
0
  2
BODY
 70
0
 10
0.0
 20
0.0
 30
0.0
  3
BODY
  0
ARC
  8
0
 62
0
 10
0.0
 20
112.5
 30
0.0
 40
157.5
 50
-92.6541300975
 51
-86.2056932454
  0
POLYLINE
  8
0
 62
0
 70
0
 66
1
 10
0.0
 20
0.0
 30
0.0
  0
VERTEX
  8
0
 10
-7.29331211989
 20
-44.8310446108
 30
0.0
  0
VERTEX
  8
0
 10
-11.3040351058
 20
-45.4707643419
 30
0.0
  0
VERTEX
  8
0
 10
-14.7836835341
 20
-47.7057549179
 30
0.0
  0
VERTEX
  8
0
 10
-17.0693038285
 20
-51.1775928256
 30
0.0
  0
VERTEX
  8
0
 10
-17.7468252958
 20
-55.2573459403
 30
0.0
  0
VERTEX
  8
0
 10
-16.7490575358
 20
-59.1943020527
 30
0.0
  0
SEQEND
  8
0
  0
POLYLINE
  8
0
 62
0
 70
0
 66
1
 10
0.0
 20
0.0
 30
0.0
  0
VERTEX
  8
0
 10
10.4225235432
 20
-44.654767675
 30
0.0
  0
VERTEX
  8
0
 10
14.7284688029
 20
-45.320500293
 30
0.0
  0
VERTEX
  8
0
 10
18.3425834622
 20
-47.7541199925
 30
0.0
  0
VERTEX
  8
0
 10
20.5787622749
 20
-51.493638588
 30
0.0
  0
VERTEX
  8
0
 10
21.0124618734
 20
-55.8291037159
 30
0.0
  0
VERTEX
  8
0
 10
19.5613543691
 20
-59.937474326
 30
0.0
  0
SEQEND
  8
0
  0
ARC
  8
0
 62
0
 10
-77.0
 20
-88.5
 30
0.0
 40
67.0
 50
112.139857365
 51
25.9380111662
  0
ARC
  8
0
 62
0
 10
70.0
 20
-91.5
 30
0.0
 40
59.5
 50
147.963282718
 51
69.9147258021
  0
POLYLINE
  8
0
 62
0
 70
0
 66
1
 10
0.0
 20
0.0
 30
0.0
  0
VERTEX
  8
0
 10
-99.6894042626
 20
-9.43552672528
 30
0.0
  0
VERTEX
  8
0
 10
-97.1326198549
 20
-12.5911593761
 30
0.0
  0
VERTEX
  8
0
 10
-96.0368161135
 20
-16.578970176
 30
0.0
  0
VERTEX
  8
0
 10
-96.6558124333
 20
-20.6892696959
 30
0.0
  0
VERTEX
  8
0
 10
-98.8774535161
 20
-24.1774564683
 30
0.0
  0
VERTEX
  8
0
 10
-102.250203202
 20
-26.4401318223
 30
0.0
  0
SEQEND
  8
0
  0
POLYLINE
  8
0
 62
0
 70
0
 66
1
 10
0.0
 20
0.0
 30
0.0
  0
VERTEX
  8
0
 10
90.4333902256
 20
-35.6186384929
 30
0.0
  0
VERTEX
  8
0
 10
86.7655403226
 20
-33.2667793163
 30
0.0
  0
VERTEX
  8
0
 10
84.4459676481
 20
-29.5784311467
 30
0.0
  0
VERTEX
  8
0
 10
83.9150255708
 20
-25.2537813899
 30
0.0
  0
VERTEX
  8
0
 10
85.2735159255
 20
-21.1138711043
 30
0.0
  0
VERTEX
  8
0
 10
88.2635392206
 20
-17.9446152367
 30
0.0
  0
SEQEND
  8
0
  0
ARC
  8
0
 62
0
 10
0.0
 20
112.5
 30
0.0
 40
157.5
 50
-55.9162982342
 51
-129.268001372
  0
LINE
  8
0
 62
0
 10
-170.0
 20
287.5
 30
0.0
 11
170.0
 21
287.5
 31
0.0
  0
LINE
  8
0
 62
0
 10
170.0
 20
287.5
 30
0.0
 11
170.0
 21
-287.5
 31
0.0
  0
LINE
  8
0
 62
0
 10
170.0
 20
-287.5
 30
0.0
 11
-170.0
 21
-287.5
 31
0.0
  0
LINE
  8
0
 62
0
 10
-170.0
 20
-287.5
 30
0.0
 11
-170.0
 21
287.5
 31
0.0
  0
CIRCLE
  8
0
 62
0
 10
0.0
 20
-169.5
 30
0.0
 40
37.5
  0
CIRCLE
  8
0
 62
0
 10
135.0
 20
-259.5
 30
0.0
 40
10.0
  0
CIRCLE
  8
0
 62
0
 10
90.0
 20
-259.5
 30
0.0
 40
10.0
  0
ENDBLK
  0
ENDSEC
  0
SECTION
  2
ENTITIES
  0
INSERT
  2
BODY
  8
0
 62
0
 10
0.0
 20
0.0
 30
0.0
  0
ENDSEC
  0
EOF
